# xmcd
#
# Track frame offsets:
#	150
#	13450
#	25545
#	40637
#	50325
#	61837
#	75750
#	87267
#	98679
#	109397
#	119442
#	128852
#	140035
#	149047
#	160440
#	172442
#	184850
#	195847
#
# Disc length: 2747 seconds
#
# Revision: 1
# Processed by: cddbd v1.4PL0 Copyright (c) Steve Scherf et al.
# Submitted via: CDmax 1.9
#
DISCID=f90ab912
DTITLE=Banjo Band Ivana Mladka - Proc me zeny nemaj rady
DYEAR=2002
DGENRE=Country
TTITLE0=Tanja
TTITLE1=Ja a muj kamion
TTITLE2=Vlak je vlak
TTITLE3=Pedro spadnul z modrinu
TTITLE4=Mlady jockey
TTITLE5=Ja tam nejdu
TTITLE6=Pisen o Smolickovi
TTITLE7=Pisen Apacu
TTITLE8=Hrajeme ping-pong
TTITLE9=Kane mysilov
TTITLE10=Zamberk-Vamberk
TTITLE11=Parozi
TTITLE12=Sousedovic Tonicek
TTITLE13=Mamut a Helmut
TTITLE14=Je to vsechno na bejka
TTITLE15=Pojd, Ingrid, pojd
TTITLE16=Proc me zeny nemaj rady
TTITLE17=Banjo, ja se s tebou loucim
EXTD=
EXTT0=
EXTT1=
EXTT2=
EXTT3=
EXTT4=
EXTT5=
EXTT6=
EXTT7=
EXTT8=
EXTT9=
EXTT10=
EXTT11=
EXTT12=
EXTT13=
EXTT14=
EXTT15=
EXTT16=
EXTT17=
PLAYORDER=
